<?xml version="1.0" encoding="UTF-8"?>
<svg width="202px" height="48px" viewBox="0 0 202 48" version="1.1" xmlns="http://www.w3.org/2000/svg" xmlns:xlink="http://www.w3.org/1999/xlink">
    <!-- Generator: sketchtool 49 (51002) - http://www.bohemiancoding.com/sketch -->
    <title>347E6FE6-68A0-4C35-BD19-9961BA47FAC4</title>
    <desc>Created with sketchtool.</desc>
    <defs></defs>
    <g id="Page-1" stroke="none" stroke-width="1" fill="none" fill-rule="evenodd">
        <g id="Landing-Revised" transform="translate(-64.000000, -52.000000)">
            <g id="Group-3" transform="translate(-50.000000, -92.000000)">
                <g id="Group" transform="translate(114.000000, 144.000000)">
                    <path d="M195.759353,25.5102564 L195.759353,28.7300366 L201.831936,28.7300366 L201.831936,30.7019536 L193.782489,30.7019536 L193.782489,17.1695971 L201.693617,17.1695971 L201.693617,19.073138 L195.759353,19.073138 L195.759353,21.2184371 L195.759353,22.3271062 L195.759353,23.6763126 L201.103618,23.6763126 L201.103618,25.5102564 L195.759353,25.5102564 Z M182.781822,23.1915751 L182.781822,23.5725275 C182.81732,23.6763126 182.81732,23.8142857 182.81732,23.9534799 C182.81732,24.125641 182.781822,24.2636142 182.781822,24.4369963 C182.781822,24.6103785 182.747548,24.7495726 182.713274,24.9229548 C182.609229,25.7520147 182.366864,26.5139194 181.984956,27.2062271 C181.604272,27.9327228 181.082821,28.5554335 180.492822,29.07558 C179.902823,29.5945055 179.244276,29.9754579 178.48046,30.2868132 C177.752142,30.5639805 176.918554,30.7361416 176.08619,30.7361416 C175.149781,30.7361416 174.281919,30.5639805 173.448331,30.1830281 C172.617191,29.8362637 171.887649,29.3515263 171.298874,28.7300366 C170.673377,28.106105 170.222922,27.4150183 169.839789,26.5835165 C169.493379,25.7520147 169.319562,24.8875458 169.319562,23.9534799 C169.319562,22.9840049 169.493379,22.119536 169.839789,21.2880342 C170.222922,20.4919414 170.673377,19.7654457 171.298874,19.141514 C171.887649,18.5188034 172.617191,18.0340659 173.448331,17.6885226 C174.281919,17.3429792 175.149781,17.1695971 176.08619,17.1695971 C176.780234,17.1695971 177.438781,17.2391941 178.098552,17.4467643 C178.722825,17.6531136 179.312824,17.9644689 179.833051,18.3112332 C180.388776,18.6921856 180.840456,19.141514 181.255414,19.6616606 C181.67282,20.145177 182.01923,20.7336996 182.297093,21.3222222 L180.006868,21.3222222 C179.590686,20.6299145 179.036185,20.076801 178.342141,19.6616606 C177.648096,19.2452991 176.918554,19.0377289 176.08619,19.0377289 C175.427643,19.0377289 174.83642,19.141514 174.247645,19.4186813 C173.69192,19.6616606 173.171693,20.0413919 172.755511,20.4565324 C172.338105,20.9070818 171.991695,21.4260073 171.74933,22.0145299 C171.506965,22.6372405 171.40292,23.2599512 171.40292,23.9534799 C171.40292,24.6103785 171.506965,25.2684982 171.74933,25.8557998 C171.991695,26.4455433 172.338105,26.9632479 172.755511,27.4150183 C173.171693,27.8643468 173.69192,28.2098901 174.247645,28.4516484 C174.83642,28.7300366 175.427643,28.8680098 176.08619,28.8680098 C176.641915,28.8680098 177.162142,28.7642247 177.68237,28.5554335 C178.168323,28.3478632 178.653053,28.071917 179.036185,27.7251526 C179.452367,27.3796093 179.798777,26.9632479 180.075416,26.4797314 C180.354502,25.9937729 180.52832,25.4760684 180.632365,24.9229548 L175.878099,24.9229548 L175.878099,23.1915751 L180.700913,23.1915751 L182.781822,23.1915751 Z M150.340444,27.8985348 L155.197531,27.8985348 L152.768988,21.6689866 L150.340444,27.8985348 Z M147.217856,30.7019536 L152.768988,17.1 L158.321344,30.7019536 L156.308982,30.7019536 L155.8928,29.6286935 L149.680673,29.6286935 L149.230217,30.7019536 L147.217856,30.7019536 Z M127.40515,22.1879121 L127.40515,30.7715507 L125.531107,30.7715507 L125.531107,16.9266178 L134.344371,27.4150183 L134.344371,17.1695971 L136.218413,17.1695971 L136.218413,30.7715507 L134.414142,30.7715507 L127.40515,22.1879121 Z M112.553576,30.7373626 L114.531664,30.7373626 L114.531664,17.135409 L112.553576,17.135409 L112.553576,30.7373626 Z M94.7544563,28.8680098 C95.413003,28.8680098 96.003002,28.7300366 96.593001,28.4516484 C97.1475022,28.2098901 97.6689536,27.8643468 98.0851355,27.4150183 C98.5355912,26.9632479 98.8489517,26.4455433 99.0913164,25.8557998 C99.369179,25.2684982 99.4732245,24.6103785 99.4732245,23.9534799 C99.4732245,23.2599512 99.369179,22.6372405 99.0913164,22.0145299 C98.8489517,21.4260073 98.5355912,20.8716728 98.0851355,20.4223443 C97.6689536,19.9730159 97.1475022,19.6274725 96.593001,19.3832723 C96.003002,19.107326 95.413003,19.0035409 94.7544563,19.0035409 C94.0946856,19.0035409 93.5059107,19.107326 92.9501854,19.3832723 C92.3601864,19.6274725 91.8742328,19.9730159 91.4237771,20.4223443 C91.0075953,20.8716728 90.659961,21.4260073 90.4163722,22.0145299 C90.1740074,22.6372405 90.0356881,23.2599512 90.0356881,23.9534799 C90.0356881,24.6103785 90.1740074,25.2684982 90.4163722,25.8557998 C90.659961,26.4455433 91.0075953,26.9632479 91.4237771,27.4150183 C91.8742328,27.8643468 92.3601864,28.2098901 92.9501854,28.4516484 C93.5059107,28.7300366 94.0946856,28.8680098 94.7544563,28.8680098 Z M94.7544563,17.065812 C95.6908656,17.065812 96.593001,17.2733822 97.4265889,17.6189255 C98.2589526,17.9644689 98.9529971,18.4504274 99.57727,19.073138 C100.202767,19.6958486 100.687496,20.4223443 101.033907,21.2538462 C101.381541,22.082906 101.555358,22.9840049 101.555358,23.9534799 C101.555358,24.8875458 101.381541,25.7520147 101.033907,26.5835165 C100.687496,27.4150183 100.202767,28.140293 99.57727,28.7642247 C98.9529971,29.3869353 98.2589526,29.8716728 97.4265889,30.2172161 C96.593001,30.5981685 95.6908656,30.7715507 94.7544563,30.7715507 C93.8180471,30.7715507 92.9146876,30.5981685 92.1165976,30.2172161 C91.2842338,29.8716728 90.5559155,29.3869353 89.9659165,28.7642247 C89.3416436,28.140293 88.8556901,27.4150183 88.5092799,26.5835165 C88.1616456,25.7520147 87.9535546,24.8875458 87.9535546,23.9534799 C87.9535546,22.9840049 88.1616456,22.082906 88.5092799,21.2538462 C88.8556901,20.4223443 89.3416436,19.6958486 89.9659165,19.073138 C90.5559155,18.4504274 91.2842338,17.9644689 92.1165976,17.6189255 C92.9146876,17.2733822 93.8180471,17.065812 94.7544563,17.065812 Z M71.5425235,28.8680098 C72.3393894,28.8680098 73.0689318,28.6604396 73.7274784,28.2794872 C74.3872491,27.8985348 74.9417503,27.4150183 75.3591562,26.7910867 L76.98961,27.9681319 C76.3641131,28.8338217 75.5672472,29.4907204 74.6296139,29.9754579 C73.6919806,30.4943834 72.6870237,30.7361416 71.5425235,30.7361416 C70.6048902,30.7361416 69.7370286,30.5639805 68.9401626,30.1830281 C68.1065748,29.8362637 67.4113062,29.3515263 66.7882575,28.7300366 C66.1970344,28.106105 65.7123049,27.4150183 65.3658947,26.5835165 C64.9839866,25.7520147 64.8101694,24.8875458 64.8101694,23.9534799 C64.8101694,22.9840049 64.9839866,22.119536 65.3658947,21.2880342 C65.7123049,20.4919414 66.1970344,19.7654457 66.7882575,19.141514 C67.4113062,18.5188034 68.1065748,18.0340659 68.9401626,17.6885226 C69.7370286,17.3429792 70.6048902,17.1695971 71.5425235,17.1695971 C72.6870237,17.1695971 73.6919806,17.4113553 74.6296139,17.8960928 C75.5672472,18.3808303 76.3641131,19.073138 76.98961,19.9034188 L75.3591562,21.114652 C74.9417503,20.4565324 74.3872491,19.9730159 73.7274784,19.5908425 C73.0689318,19.2111111 72.3393894,19.0377289 71.5425235,19.0377289 C70.9170266,19.0377289 70.2927538,19.141514 69.7370286,19.4186813 C69.1825274,19.6616606 68.6953498,20.0413919 68.2448941,20.4565324 C67.8287122,20.9070818 67.5165758,21.4260073 67.2387132,22.0145299 C66.9963484,22.6372405 66.8923029,23.2599512 66.8923029,23.9534799 C66.8923029,24.6103785 66.9963484,25.2684982 67.2387132,25.8557998 C67.5165758,26.4455433 67.8287122,26.9632479 68.2448941,27.4150183 C68.6953498,27.8643468 69.1825274,28.2098901 69.7370286,28.4516484 C70.2927538,28.7300366 70.9170266,28.8680098 71.5425235,28.8680098 Z" id="Fill-3" fill="#F1F2F2"></path>
                    <path d="M30.2859233,37.7978022 C28.3763828,38.6622711 26.2269258,39.1470085 24.0052489,39.1470085 C15.5383956,39.1470085 8.66894634,32.2935287 8.66894634,23.8490842 C8.66894634,15.4034188 15.5383956,8.55115995 24.0052489,8.55115995 C26.2269258,8.55115995 28.3763828,9.0004884 30.2859233,9.86617827 L34.5187379,2.49377289 C31.3618758,0.936996337 27.7876079,0.0713064713 24.0052489,0.0713064713 C10.8551253,0.0713064713 0.169043291,10.6976801 0.169043291,23.8490842 C0.169043291,36.9663004 10.8551253,47.626862 24.0052489,47.626862 C27.7876079,47.626862 31.3618758,46.7269841 34.5187379,45.1689866 L30.2859233,37.7978022 Z" id="Fill-5" fill="#F1F2F2"></path>
                    <path d="M32.2631545,36.7592186 L36.4971931,44.0962149 C38.8559652,42.6420024 40.9380987,40.8080586 42.6725979,38.6273504 L35.8031486,33.6432234 C34.7957436,34.8544567 33.5814718,35.8935287 32.2631545,36.7592186" id="Fill-21" fill="#B27200"></path>
                    <path d="M43.8869922,36.9666667 C45.3436288,34.8201465 46.4195814,32.3976801 47.0793521,29.8018315 L38.7863159,28.0374847 C38.370134,29.4562882 37.7813591,30.7713065 37.0175429,31.9825397 L43.8869922,36.9666667 Z" id="Fill-23" fill="#BD7D00"></path>
                    <path d="M47.5304198,27.7948718 C47.7385108,26.5140415 47.8425562,25.1990232 47.8425562,23.8498168 C47.8425562,22.4993895 47.7385108,21.1843712 47.5304198,19.9035409 L39.2031099,21.6678877 C39.3071553,22.3956044 39.3426532,23.1221001 39.3426532,23.8498168 C39.3426532,24.5750916 39.3071553,25.3028083 39.2031099,26.030525 L47.5304198,27.7948718 Z" id="Fill-25" fill="#E29B02"></path>
                    <path d="M47.0798417,17.8957265 C46.420071,15.2998779 45.3441184,12.8774115 43.8874818,10.6967033 L36.9825347,15.7162393 C37.7806246,16.9262515 38.3706237,18.2412698 38.7868056,19.6612943 L47.0798417,17.8957265 Z" id="Fill-27" fill="#FFC335"></path>
                    <path d="M42.6724755,9.06971917 C40.9379763,6.89023199 38.8558428,5.05506716 36.4970707,3.6008547 L32.263032,10.939072 C33.5813494,11.8047619 34.7956212,12.8426129 35.8030262,14.0538462 L42.6724755,9.06971917 Z" id="Fill-29" fill="#FFCD4F"></path>
                </g>
            </g>
        </g>
    </g>
</svg>